<svg viewBox="0 0 16 16" fill="#ffffff" xmlns="http://www.w3.org/2000/svg" id="Codepen-Fill--Streamline-Remix-Fill" height="16" width="16"><path d="M8 6.8012 6.201853333333333 8 8 9.198799999999999 9.798133333333332 8 8 6.8012Zm3 0.3976L12.798133333333332 6 8.666666666666666 3.24568v2.397533333333333l2.333333333333333 1.5555866666666667Zm2.333333333333333 0.04686666666666667L12.201866666666668 8 13.333333333333332 8.754333333333333v-1.5086666666666666Zm-2.333333333333333 1.5555333333333332L8.666666666666666 10.3568v2.397533333333333L12.798133333333332 10 11 8.8012ZM7.333333333333333 5.643213333333333v-2.397533333333333L3.201853333333333 6 5 7.198799999999999 7.333333333333333 5.643213333333333ZM3.201853333333333 10 7.333333333333333 12.754333333333332v-2.397533333333333l-2.333333333333333 -1.5556L3.201853333333333 10Zm0.5962933333333333 -2L2.6666666666666665 7.245666666666666v1.5086666666666666L3.7981466666666663 8ZM1.3333333333333333 6c0 -0.2229 0.1114 -0.43105333333333334 0.2968666666666666 -0.5547l6 -4c0.22393333333333332 -0.14928666666666665 0.5156666666666666 -0.14928666666666665 0.7395999999999999 0l6 4C14.555266666666665 5.568946666666666 14.666666666666666 5.777099999999999 14.666666666666666 6v4c0 0.22293333333333332 -0.1114 0.4310666666666666 -0.2968666666666666 0.5547333333333333l-6 4c-0.22393333333333332 0.14926666666666666 -0.5156666666666666 0.14926666666666666 -0.7395999999999999 0l-6 -4C1.4447333333333332 10.431066666666666 1.3333333333333333 10.222933333333334 1.3333333333333333 10V6Z" stroke-width="0.6667"></path></svg>